<svg xmlns="http://www.w3.org/2000/svg" viewBox="0 0 66 31" width="66" height="31">
	<style>
		tspan { white-space:pre }
		.shp0 { fill: #fcff00 } 
	</style>
	<g id="main">
		<g id="5 screen">
			<path id="Shape 759" class="shp0" d="M65.99,18.08c0,0 -1.55,-2.11 -1.88,-2.05c-0.46,0.06 -0.92,0.12 -1.45,0.25c-7.74,-0.43 -14.51,-2.13 -20.72,-7.53c-0.33,-0.21 1.48,1.91 1.95,2.38c3.41,3.21 8.01,6.03 12.72,7.1c-19.13,3.95 -40.02,-0.56 -54.09,-15.83c-0.6,-0.61 -2.48,-2.39 -0.93,-0.69c12.8,14.38 30.76,23.1 48.92,20.55c-1.7,1.33 -3.21,2.86 -4.44,4.53c-0.13,0.27 2.88,3.34 3.01,3.21c2.48,-2.53 5.03,-4.99 7.92,-6.98c2.69,-1.79 5.65,-3.03 8.54,-4.61v0c0.2,-0.07 0.33,-0.2 0.46,-0.33z" />
		</g>
	</g>
</svg>